<?xml version="1.0" standalone="no"?>
<!DOCTYPE svg PUBLIC "-//W3C//DTD SVG 20010904//EN"
 "http://www.w3.org/TR/2001/REC-SVG-20010904/DTD/svg10.dtd">
<svg version="1.0" xmlns="http://www.w3.org/2000/svg"
 width="1000.000000pt" height="1000.000000pt" viewBox="0 0 1000.000000 1000.000000"
 preserveAspectRatio="xMidYMid meet">
<metadata>
Created by potrace 1.14, written by Peter Selinger 2001-2017
</metadata>
<g transform="translate(0.000000,1000.000000) scale(0.100000,-0.100000)"
fill="#000000" stroke="none">
<path d="M0 5000 l0 -5000 5000 0 5000 0 0 5000 0 5000 -5000 0 -5000 0 0
-5000z m5426 1880 c820 -78 1600 -374 2409 -913 329 -219 759 -557 828 -650
71 -96 86 -230 37 -327 -57 -115 -127 -143 -244 -99 -91 33 -168 99 -421 354
-282 285 -488 457 -780 652 -364 242 -701 408 -1090 538 -282 94 -488 142
-785 180 -177 23 -561 31 -746 15 -1119 -92 -2210 -656 -3285 -1696 -96 -93
-169 -162 -163 -154 48 68 202 250 310 370 531 584 1182 1065 1837 1359 433
194 838 307 1296 361 181 21 620 26 797 10z m-146 -435 c446 -53 839 -174
1239 -381 443 -230 834 -531 1253 -963 222 -230 328 -384 403 -591 36 -99 45
-225 21 -298 -37 -110 -169 -210 -291 -220 -90 -7 -152 24 -264 132 -49 47
-100 88 -115 92 -42 10 -71 -15 -146 -122 -56 -81 -278 -225 -580 -377 -328
-165 -613 -274 -935 -357 -786 -205 -1543 -209 -2285 -14 -585 154 -1173 444
-1710 844 -124 93 -330 258 -330 265 0 3 42 -25 92 -61 295 -209 747 -464
1090 -615 638 -281 1260 -435 1853 -458 578 -23 1077 67 1598 288 354 151 801
444 1068 702 117 113 169 233 169 388 -1 147 -41 234 -195 420 -277 334 -619
617 -971 803 -91 48 -290 138 -305 138 -5 0 11 -28 35 -62 178 -256 270 -620
237 -933 -67 -632 -515 -1125 -1141 -1256 -149 -31 -400 -31 -549 0 -607 127
-1060 619 -1132 1230 -14 117 -6 340 15 441 37 171 111 351 200 489 25 40 46
73 46 76 0 2 -51 -14 -112 -36 -423 -151 -932 -410 -1380 -702 -171 -112 -483
-333 -618 -439 -52 -40 -102 -78 -110 -82 -49 -28 277 277 450 420 408 340
800 596 1235 809 481 235 926 369 1425 429 160 19 581 20 740 1z"/>
<path d="M4651 5694 c-117 -31 -244 -129 -310 -238 -153 -255 -48 -600 221
-730 149 -72 317 -70 465 5 73 37 164 124 210 201 36 59 73 188 73 253 0 234
-166 450 -391 510 -68 19 -198 18 -268 -1z"/>
<path d="M3563 5163 c4 -110 12 -175 31 -251 28 -110 83 -255 96 -250 4 2 118
56 253 122 l245 119 -18 41 c-27 64 -50 178 -50 250 0 37 -1 66 -2 66 -2 0
-118 11 -258 25 -140 14 -266 25 -279 25 l-24 0 6 -147z"/>
</g>
</svg>
